<svg xmlns="http://www.w3.org/2000/svg" xmlns:xlink="http://www.w3.org/1999/xlink" width="896" zoomAndPan="magnify" viewBox="0 0 672 671.999997" height="896" preserveAspectRatio="xMidYMid meet" version="1.0"><path fill="#0e79b2" d="M 310.238281 88.425781 C 309.96875 92.210938 309.75 97.210938 309.75 99.539062 C 309.75 101.867188 309.34375 104.179688 308.851562 104.671875 C 308.148438 105.375 308.148438 105.773438 308.851562 106.472656 C 309.355469 106.976562 309.75 109.394531 309.75 111.957031 C 309.75 116.207031 309.582031 116.667969 307.445312 118.246094 C 306.175781 119.183594 305.285156 120.34375 305.464844 120.824219 C 305.644531 121.304688 305.417969 131.972656 304.960938 144.523438 L 304.125 167.351562 L 301.125 168.914062 C 298.304688 170.386719 298.136719 170.65625 298.351562 173.464844 C 299.675781 190.882812 299.460938 227.035156 297.917969 245.074219 L 297.375 251.445312 L 294.613281 251.207031 C 290.59375 250.859375 288.75 252.097656 288.75 255.144531 C 288.75 256.691406 289.183594 257.828125 289.875 258.09375 C 290.492188 258.332031 291 258.929688 291 259.425781 C 291 259.917969 290.78125 260.105469 290.515625 259.839844 C 290.246094 259.570312 288.726562 260.085938 287.132812 260.980469 C 285.070312 262.140625 284.355469 262.972656 284.644531 263.878906 C 284.941406 264.824219 284 265.742188 281.015625 267.429688 C 276.84375 269.785156 273 273.652344 273 275.496094 C 273 276.078125 271.820312 277.046875 270.375 277.652344 C 268.929688 278.253906 267.75 279.140625 267.75 279.625 C 267.75 280.105469 268.761719 281.652344 270 283.0625 C 272.457031 285.859375 272.820312 287.074219 271.207031 287.074219 C 270.636719 287.074219 269.386719 287.707031 268.433594 288.476562 C 266.777344 289.816406 266.757812 289.964844 267.9375 291.765625 C 268.617188 292.804688 270.363281 294.390625 271.820312 295.289062 L 274.464844 296.925781 L 272.421875 298.710938 L 270.375 300.5 L 272.460938 302.464844 C 274.210938 304.113281 274.472656 304.832031 274.078125 306.9375 C 273.820312 308.316406 273.84375 310.1875 274.132812 311.09375 C 274.839844 313.328125 284.644531 317.816406 290.023438 318.375 L 294.125 318.796875 L 293.707031 321.121094 C 292.90625 325.566406 285.191406 424.265625 280.507812 489.949219 C 278.101562 523.710938 275.25 565.023438 275.25 566.140625 C 275.25 566.515625 272.804688 566.824219 269.8125 566.828125 C 266.820312 566.832031 262.105469 567.046875 259.328125 567.3125 L 254.285156 567.789062 L 254.078125 580.992188 L 253.875 594.199219 L 250.914062 594.441406 C 249.117188 594.585938 246.90625 595.492188 245.289062 596.742188 C 239.320312 601.359375 237.175781 602.28125 234.550781 601.359375 C 232.410156 600.609375 232.003906 600.6875 231.097656 602.042969 C 230.53125 602.882812 229.769531 603.574219 229.410156 603.574219 C 229.046875 603.574219 228.75 600.03125 228.75 595.699219 L 228.75 587.824219 L 219.730469 587.824219 L 220.109375 584.824219 C 220.484375 581.84375 220.472656 581.824219 217.957031 581.824219 C 215.578125 581.824219 215.375 581.617188 214.566406 578.398438 C 213.914062 575.804688 213.390625 575.03125 212.414062 575.21875 C 211.484375 575.394531 211.058594 576.347656 210.894531 578.644531 C 210.691406 581.421875 210.441406 581.824219 208.894531 581.824219 C 205.824219 581.824219 204.75 582.625 204.75 584.902344 C 204.75 587.054688 204.714844 587.074219 200.25 587.074219 L 195.75 587.074219 L 195.75 589.699219 C 195.75 591.292969 195.382812 592.328125 194.8125 592.335938 C 194.1875 592.34375 194.25 592.589844 195 593.074219 C 195.921875 593.667969 195.839844 593.804688 194.542969 593.8125 C 193.03125 593.824219 192.933594 593.339844 192.40625 583.136719 C 192.101562 577.257812 191.882812 554.8125 191.921875 533.261719 C 191.988281 496.453125 191.914062 494.074219 190.683594 494.066406 C 189.964844 494.0625 188.023438 493.894531 186.375 493.699219 C 183.597656 493.367188 183.65625 493.417969 187.125 494.367188 C 190.871094 495.394531 190.871094 495.394531 188.125 495.484375 C 184.703125 495.59375 183 494.976562 183 493.617188 C 183 493.042969 182.578125 492.570312 182.0625 492.570312 C 181.546875 492.566406 179.828125 492.207031 178.246094 491.765625 C 175.644531 491.042969 175.46875 490.84375 176.445312 489.707031 C 178.410156 487.410156 178.910156 486.066406 177.257812 487.511719 C 176.433594 488.234375 175.5625 488.824219 175.324219 488.824219 C 175.085938 488.824219 174.847656 484.195312 174.792969 478.539062 C 174.726562 471.375 174.421875 468.078125 173.785156 467.675781 C 170.933594 465.863281 163.066406 463.925781 159.964844 464.277344 C 154.660156 464.875 154.351562 465.53125 153.988281 476.949219 C 153.613281 488.621094 153.863281 488.230469 144.804688 491.386719 L 139.125 493.363281 L 139.125 516.03125 C 139.125 528.5 139.410156 539.617188 139.761719 540.734375 C 140.53125 543.195312 138.273438 592.503906 137.222656 596.164062 C 136.828125 597.550781 136.464844 606.792969 136.421875 616.695312 C 136.378906 626.597656 136.09375 637.738281 135.789062 641.449219 C 135.292969 647.546875 135.226562 646.953125 135.117188 635.3125 C 135 622.589844 134.980469 622.425781 133.3125 622.101562 C 131.644531 621.78125 131.648438 621.777344 133.402344 621.675781 C 134.898438 621.589844 135.035156 621.394531 134.25 620.449219 C 133.496094 619.542969 133.515625 619.320312 134.347656 619.3125 C 135.15625 619.304688 135.132812 619.144531 134.25 618.574219 C 133.632812 618.175781 132.195312 617.84375 131.0625 617.835938 C 129.367188 617.824219 129 617.492188 129 615.949219 C 129 614.847656 128.570312 614.074219 127.957031 614.074219 C 127.378906 614.074219 126.707031 613.539062 126.457031 612.886719 C 126.203125 612.234375 126 596.742188 126 578.457031 L 126 545.214844 L 122.402344 544.71875 C 117.820312 544.089844 116.859375 543.464844 115.777344 540.421875 L 114.898438 537.949219 L 113.992188 540.410156 C 113.242188 542.449219 112.808594 542.785156 111.480469 542.359375 C 110.597656 542.078125 108.792969 541.886719 107.464844 541.9375 C 104.289062 542.054688 103.816406 541.058594 105.609375 538.019531 L 107.089844 535.511719 L 105.210938 535.511719 C 104.175781 535.511719 103.007812 535.046875 102.617188 534.480469 C 102.203125 533.875 102.046875 527.695312 102.246094 519.574219 C 102.453125 511.097656 102.359375 507.597656 102.003906 510.574219 C 101.6875 513.253906 101.386719 519.75 101.335938 525.011719 L 101.25 534.574219 L 97.582031 534.574219 C 93.726562 534.574219 93 535.214844 93 538.605469 C 93 540.039062 92.363281 540.394531 88.3125 541.21875 C 74.945312 543.945312 75.417969 543.75 75.246094 546.605469 C 75.160156 548.03125 74.953125 571.574219 74.789062 598.917969 C 74.554688 637.351562 74.273438 648.84375 73.550781 649.542969 C 72.800781 650.265625 72.722656 647.382812 73.152344 635.199219 L 73.695312 619.949219 L 67.972656 620.199219 C 62.53125 620.4375 62.246094 620.367188 62.25 618.832031 C 62.25 617.328125 62.0625 617.273438 59.625 618.019531 C 58.179688 618.460938 57 619.105469 57 619.449219 C 57 619.792969 56.492188 620.074219 55.875 620.074219 C 55.257812 620.074219 54.75 619.734375 54.75 619.324219 C 54.75 618.910156 54.414062 618.574219 54 618.574219 C 53.585938 618.574219 53.25 619.078125 53.25 619.699219 C 53.25 620.480469 52.464844 620.824219 50.683594 620.824219 C 48.445312 620.824219 48.054688 621.109375 47.625 623.074219 C 47.152344 625.230469 46.964844 625.324219 43.121094 625.324219 L 39.109375 625.324219 L 39.535156 629.449219 C 39.945312 633.417969 39.890625 633.574219 38.164062 633.574219 C 37.171875 633.574219 35.355469 633.285156 34.121094 632.929688 L 31.875 632.285156 L 31.824219 640.992188 C 31.785156 646.582031 31.722656 652.171875 31.636719 657.761719 L 31.5 665.824219 L 27.046875 665.824219 C 20.789062 665.824219 18.75 666.730469 18.75 669.515625 L 18.75 671.746094 L 296.4375 671.78125 C 449.164062 671.800781 591.175781 672.039062 612.019531 672.3125 C 653.371094 672.855469 653.25 672.863281 653.25 668.796875 C 653.25 666.578125 653.238281 666.574219 648.75 666.574219 L 644.25 666.574219 L 644.179688 649.136719 C 644.140625 639.546875 643.972656 625.625 643.808594 618.199219 C 643.640625 610.773438 643.503906 604.277344 643.5 603.761719 C 643.5 603.144531 642.285156 602.820312 639.9375 602.820312 C 637.976562 602.816406 633.589844 602.597656 630.1875 602.332031 L 624 601.851562 L 624 589.515625 L 595.5 588.421875 L 595.5 574.324219 L 584.25 574.324219 L 584.25 572.074219 C 584.25 569.160156 583.109375 569.207031 581.570312 572.179688 L 580.351562 574.535156 L 573.375 574.042969 C 566.894531 573.589844 566.066406 573.695312 561.800781 575.546875 L 557.207031 577.539062 L 557.414062 599.507812 L 557.625 621.476562 L 552.835938 622.375 L 553.289062 630.410156 C 553.707031 637.84375 553.648438 638.371094 552.496094 637.417969 C 551.40625 636.519531 551.25 636.582031 551.25 637.925781 C 551.25 638.785156 551.828125 639.585938 552.5625 639.738281 C 553.675781 639.96875 553.636719 640.074219 552.300781 640.441406 C 550.753906 640.867188 550.722656 640.644531 550.324219 626.160156 C 550.101562 618.070312 550.023438 598.917969 550.148438 583.597656 L 550.375 555.75 L 547.625 555.292969 C 546.113281 555.046875 541.613281 554.835938 537.628906 554.832031 L 530.382812 554.824219 L 530.128906 542.882812 C 529.988281 536.316406 529.671875 530.746094 529.425781 530.496094 C 528.875 529.949219 483.648438 528.546875 482.832031 529.054688 C 482.511719 529.25 482.25 535.476562 482.25 542.886719 L 482.25 556.363281 L 460.875 555.949219 L 461.160156 491.074219 C 461.347656 448.230469 461.707031 425.871094 462.214844 425.230469 C 462.675781 424.652344 462.710938 424 462.304688 423.613281 C 461.757812 423.097656 457.621094 422.324219 454.269531 422.113281 C 453.933594 422.089844 453.859375 421.75 454.105469 421.355469 C 454.347656 420.960938 455 420.8125 455.550781 421.023438 C 456.105469 421.238281 456.757812 420.882812 457.003906 420.242188 C 457.335938 419.378906 456.96875 419.074219 455.601562 419.074219 C 454.496094 419.074219 453.75 418.640625 453.75 418 C 453.75 417.410156 452.988281 416.820312 452.0625 416.6875 C 450.496094 416.464844 450.386719 416.109375 450.535156 411.761719 C 450.6875 407.460938 450.042969 405.9375 448.875 407.824219 C 448.242188 408.847656 445.710938 408.769531 445.050781 407.707031 C 444.757812 407.226562 444.570312 405.347656 444.640625 403.523438 C 444.746094 400.761719 444.550781 400.25 443.480469 400.457031 C 442.699219 400.609375 441.773438 402.066406 441.117188 404.179688 C 440.214844 407.082031 439.75 407.636719 438.269531 407.550781 C 436.027344 407.421875 435.417969 404.65625 435.917969 396.863281 C 436.242188 391.859375 435.699219 389.625 434.46875 390.855469 C 434.230469 391.09375 434 394.925781 433.957031 399.367188 L 433.875 407.449219 L 427.984375 407.304688 C 424.742188 407.226562 421.90625 406.980469 421.679688 406.753906 C 421.457031 406.527344 421.070312 402.035156 420.824219 396.773438 L 420.375 387.199219 L 420 396.886719 C 419.738281 403.695312 419.347656 406.671875 418.6875 406.886719 C 417.988281 407.121094 417.75 405.660156 417.75 401.179688 C 417.75 397.871094 417.421875 394.960938 417.019531 394.710938 C 416.5625 394.429688 416.351562 396.59375 416.457031 400.480469 L 416.625 406.699219 L 412.726562 406.699219 C 410.578125 406.699219 408.402344 407.121094 407.886719 407.636719 C 407.371094 408.152344 406.171875 408.574219 405.226562 408.574219 C 403.605469 408.574219 403.492188 408.261719 403.382812 403.511719 C 403.28125 398.941406 403.21875 399.164062 402.765625 405.824219 C 402.25 413.359375 401.714844 414.535156 398.8125 414.5625 C 397.808594 414.570312 397.5 415.207031 397.5 417.242188 C 397.5 419.65625 397.199219 420.039062 394.3125 421.320312 L 391.125 422.730469 L 390.867188 467.964844 C 390.722656 492.84375 390.515625 513.292969 390.402344 513.410156 C 390.289062 513.527344 388.820312 513.402344 387.136719 513.132812 C 384.261719 512.675781 384.097656 512.515625 384.492188 510.546875 C 384.902344 508.5 384.820312 508.441406 380.894531 508.019531 C 378.683594 507.78125 375.695312 507.730469 374.25 507.90625 C 372.804688 508.082031 370.550781 508.25 369.238281 508.277344 C 367.203125 508.316406 366.816406 508.628906 366.613281 510.386719 C 366.414062 512.125 366.023438 512.449219 364.125 512.449219 L 361.875 512.449219 L 361.65625 507.011719 C 361.484375 502.851562 361.175781 501.574219 360.34375 501.574219 C 359.480469 501.574219 359.25 502.78125 359.25 507.261719 C 359.25 511.476562 359.007812 512.867188 358.3125 512.640625 C 357.710938 512.441406 357.238281 510.191406 357 506.398438 C 356.691406 501.519531 356.390625 500.417969 355.3125 500.214844 C 354.144531 499.992188 354 500.675781 354 506.394531 C 354 511.609375 353.789062 512.824219 352.875 512.824219 C 351.96875 512.824219 351.75 511.664062 351.75 506.886719 C 351.75 500.765625 351.332031 498.574219 350.167969 498.574219 C 349.800781 498.574219 349.5 501.613281 349.5 505.324219 C 349.5 511.574219 349.390625 512.074219 348 512.074219 C 347.085938 512.074219 346.484375 511.558594 346.457031 510.761719 C 346.433594 510.039062 346.351562 506.917969 346.269531 503.824219 C 346.085938 496.664062 344.703125 495.65625 344.40625 502.464844 C 344.207031 506.976562 344.019531 507.503906 342.53125 507.730469 C 341.621094 507.871094 340.957031 508.386719 341.054688 508.878906 C 341.152344 509.371094 340.90625 510.628906 340.507812 511.671875 C 339.929688 513.195312 339.277344 513.574219 337.230469 513.574219 C 334.046875 513.574219 333.773438 512.738281 333.761719 502.933594 C 333.742188 489.523438 330.292969 414.066406 327.015625 355.324219 C 326.21875 341.09375 325.492188 327.273438 325.398438 324.609375 L 325.226562 319.769531 L 328.550781 318.910156 C 332.765625 317.820312 339.527344 314.96875 342.132812 313.179688 C 343.996094 311.898438 344.109375 311.511719 343.726562 307.792969 C 343.328125 303.957031 343.394531 303.761719 345.257812 303.292969 C 346.332031 303.027344 347.558594 302.148438 347.992188 301.339844 C 348.636719 300.136719 348.445312 299.660156 346.921875 298.660156 C 345.902344 297.992188 344.714844 297.664062 344.28125 297.929688 C 343.851562 298.195312 343.5 298.078125 343.5 297.667969 C 343.5 297.257812 344.199219 296.703125 345.050781 296.433594 C 347.070312 295.792969 351.75 291.671875 351.75 290.53125 C 351.75 290.046875 350.738281 289.050781 349.5 288.316406 C 348.261719 287.585938 347.25 286.730469 347.25 286.417969 C 347.25 286.101562 348.445312 284.449219 349.90625 282.742188 L 352.5625 279.636719 L 349.53125 278.089844 C 347.863281 277.238281 346.5 276.050781 346.5 275.449219 C 346.5 274.390625 335.683594 265.324219 334.421875 265.324219 C 334.078125 265.324219 333.976562 264.851562 334.199219 264.277344 C 334.453125 263.617188 333.824219 262.949219 332.488281 262.460938 C 331.324219 262.039062 330.738281 261.664062 331.183594 261.632812 C 332.574219 261.53125 331.460938 257.164062 329.917969 256.671875 C 328.960938 256.367188 328.5 255.523438 328.5 254.066406 C 328.5 252.6875 327.898438 251.488281 326.832031 250.742188 C 324.992188 249.453125 321.386719 249.132812 322.125 250.324219 C 322.378906 250.738281 321.863281 251.074219 320.976562 251.074219 L 319.363281 251.074219 L 319.546875 214.511719 C 319.71875 179.976562 319.808594 177.8125 321.167969 175.523438 C 323.015625 172.414062 322.382812 170.488281 319.09375 169.175781 L 316.496094 168.136719 L 316.082031 143.84375 C 315.855469 130.480469 315.484375 119.25 315.261719 118.890625 C 315.039062 118.527344 314.042969 117.921875 313.050781 117.546875 C 311.585938 116.988281 311.25 116.332031 311.253906 114.03125 C 311.257812 112.472656 311.617188 109.910156 312.054688 108.335938 C 312.621094 106.292969 312.613281 105.191406 312.03125 104.488281 C 311.515625 103.863281 311.257812 99.613281 311.332031 92.886719 C 311.398438 87.050781 311.289062 82.113281 311.089844 81.910156 C 310.890625 81.714844 310.507812 84.644531 310.238281 88.425781 M 296.070312 303.355469 C 297.003906 303.535156 298.355469 303.527344 299.070312 303.339844 C 299.789062 303.152344 299.023438 303.003906 297.375 303.011719 C 295.726562 303.019531 295.136719 303.175781 296.070312 303.355469 M 325.3125 304.070312 C 325.828125 304.277344 326.671875 304.277344 327.1875 304.070312 C 327.703125 303.863281 327.28125 303.691406 326.25 303.691406 C 325.21875 303.691406 324.796875 303.863281 325.3125 304.070312 M 415.3125 426.367188 C 416.652344 426.53125 418.847656 426.53125 420.1875 426.367188 C 421.527344 426.199219 420.429688 426.0625 417.75 426.0625 C 415.070312 426.0625 413.972656 426.199219 415.3125 426.367188 M 418.6875 433.125 C 420.644531 433.28125 423.851562 433.28125 425.8125 433.125 C 427.769531 432.96875 426.167969 432.84375 422.25 432.84375 C 418.332031 432.84375 416.726562 432.96875 418.6875 433.125 M 435.546875 433.867188 C 436.878906 434.03125 439.238281 434.035156 440.796875 433.871094 C 442.351562 433.707031 441.261719 433.574219 438.375 433.570312 C 435.488281 433.566406 434.214844 433.699219 435.546875 433.867188 M 440.449219 445.113281 C 441.589844 445.285156 443.277344 445.28125 444.199219 445.101562 C 445.121094 444.925781 444.1875 444.78125 442.125 444.789062 C 440.0625 444.792969 439.308594 444.941406 440.449219 445.113281 M 428.453125 449.59375 C 429.179688 449.785156 430.195312 449.769531 430.703125 449.566406 C 431.210938 449.359375 430.613281 449.203125 429.375 449.21875 C 428.136719 449.234375 427.722656 449.402344 428.453125 449.59375 M 429.5625 454.117188 C 430.902344 454.28125 433.097656 454.28125 434.4375 454.117188 C 435.777344 453.949219 434.679688 453.8125 432 453.8125 C 429.320312 453.8125 428.222656 453.949219 429.5625 454.117188 M 164.308594 462.261719 C 164.34375 463.136719 164.523438 463.3125 164.761719 462.714844 C 164.980469 462.171875 164.953125 461.527344 164.703125 461.277344 C 164.453125 461.027344 164.277344 461.46875 164.308594 462.261719 M 156.1875 466.070312 C 155.671875 466.277344 155.25 467.140625 155.25 467.984375 C 155.25 469.339844 155.578125 469.464844 158.0625 469.054688 C 159.609375 468.800781 161.613281 468.585938 162.515625 468.582031 C 163.691406 468.574219 164.125 468.148438 164.042969 467.074219 C 163.949219 465.800781 163.414062 465.582031 160.527344 465.632812 C 158.65625 465.664062 156.703125 465.863281 156.1875 466.070312 M 165.1875 467.4375 C 165.1875 468.871094 165.6875 469.214844 168.316406 469.574219 C 170.035156 469.808594 172.019531 470.222656 172.722656 470.492188 C 173.574219 470.820312 174 470.613281 174 469.871094 C 174 468.753906 171.9375 467.648438 167.53125 466.398438 C 165.398438 465.792969 165.1875 465.886719 165.1875 467.4375 M 155.25 471.199219 C 155.25 472.085938 156.238281 472.308594 159.9375 472.25 C 163.269531 472.195312 164.082031 472.011719 162.75 471.613281 L 160.875 471.050781 L 162.75 470.664062 C 163.78125 470.453125 162.515625 470.230469 159.9375 470.175781 C 156.226562 470.09375 155.25 470.308594 155.25 471.199219 M 165.285156 471.105469 C 165.378906 471.75 165.605469 472.410156 165.789062 472.570312 C 166.496094 473.1875 174 473.722656 174 473.160156 C 174 472.355469 170.964844 471.027344 167.746094 470.421875 C 165.609375 470.019531 165.144531 470.148438 165.285156 471.105469 M 414.9375 472.871094 C 416.484375 473.03125 419.015625 473.03125 420.5625 472.871094 C 422.109375 472.707031 420.84375 472.574219 417.75 472.574219 C 414.65625 472.574219 413.390625 472.707031 414.9375 472.871094 M 155.25 473.636719 C 155.25 473.945312 157.078125 474.199219 159.3125 474.199219 C 161.546875 474.199219 163.625 473.945312 163.9375 473.636719 C 164.246094 473.328125 162.417969 473.074219 159.875 473.074219 C 157.332031 473.074219 155.25 473.328125 155.25 473.636719 M 165.75 474.5 C 167.273438 475.355469 174 476.03125 174 475.328125 C 174 474.71875 169.488281 473.832031 166.5 473.855469 C 165.089844 473.867188 164.90625 474.027344 165.75 474.5 M 157.3125 475.867188 C 158.652344 476.03125 160.847656 476.03125 162.1875 475.867188 C 163.527344 475.699219 162.429688 475.5625 159.75 475.5625 C 157.070312 475.5625 155.972656 475.699219 157.3125 475.867188 M 166.5 476.765625 C 169.859375 477.777344 174 478.246094 174 477.613281 C 174 476.742188 171.140625 476.085938 167.625 476.148438 C 165.082031 476.195312 164.910156 476.289062 166.5 476.765625 M 155.25 477.574219 C 155.25 478.003906 157.261719 478.292969 159.9375 478.25 C 163.421875 478.191406 164.144531 478.019531 162.75 477.574219 C 160.023438 476.699219 155.25 476.699219 155.25 477.574219 M 165.4375 478.59375 C 165.625 479.078125 167.660156 479.53125 170.074219 479.621094 C 174.828125 479.800781 173.632812 478.835938 168.242188 478.136719 C 166.046875 477.851562 165.207031 477.988281 165.4375 478.59375 M 155.25 479.734375 C 155.25 480.472656 163.269531 480.304688 164.023438 479.550781 C 164.285156 479.289062 162.417969 479.074219 159.875 479.074219 C 157.332031 479.074219 155.25 479.371094 155.25 479.734375 M 165.34375 481.375 C 164.65625 482.484375 164.828125 482.554688 169.691406 483.101562 C 172.960938 483.46875 173.957031 483.359375 173.816406 482.644531 C 173.710938 482.125 173.117188 481.46875 172.5 481.1875 C 170.703125 480.375 165.886719 480.5 165.34375 481.375 M 155.25 481.886719 C 155.25 482.550781 163.367188 482.457031 164.039062 481.785156 C 164.292969 481.53125 162.417969 481.324219 159.875 481.324219 C 157.332031 481.324219 155.25 481.578125 155.25 481.886719 M 157.3125 484.117188 C 158.652344 484.28125 160.847656 484.28125 162.1875 484.117188 C 163.527344 483.949219 162.429688 483.8125 159.75 483.8125 C 157.070312 483.8125 155.972656 483.949219 157.3125 484.117188 M 165.367188 484.3125 C 165.625 484.730469 167.730469 485.074219 170.042969 485.074219 C 175.269531 485.074219 174.972656 484.683594 169.261719 484.039062 C 166.375 483.714844 165.054688 483.808594 165.367188 484.3125 M 155.25 485.863281 C 155.25 486.589844 158.097656 487.300781 161.0625 487.3125 C 162.769531 487.320312 163.5 486.976562 163.5 486.160156 C 163.5 485.230469 162.675781 485.03125 159.375 485.164062 C 157.105469 485.253906 155.25 485.570312 155.25 485.863281 M 158.0625 486.320312 C 158.578125 486.527344 159.421875 486.527344 159.9375 486.320312 C 160.453125 486.113281 160.03125 485.941406 159 485.941406 C 157.96875 485.941406 157.546875 486.113281 158.0625 486.320312 M 165 486.949219 C 165 487.6875 165.738281 488.074219 167.15625 488.074219 C 168.34375 488.074219 170.292969 488.269531 171.492188 488.507812 C 173.316406 488.875 173.691406 488.691406 173.789062 487.382812 C 173.894531 485.964844 173.503906 485.824219 169.453125 485.824219 C 165.996094 485.824219 165 486.074219 165 486.949219 M 153.144531 490.699219 C 153.160156 491.9375 153.328125 492.351562 153.519531 491.621094 C 153.710938 490.890625 153.699219 489.878906 153.492188 489.371094 C 153.285156 488.863281 153.132812 489.460938 153.144531 490.699219 M 154.617188 491.074219 C 154.617188 492.105469 154.789062 492.527344 154.996094 492.011719 C 155.203125 491.496094 155.203125 490.652344 154.996094 490.136719 C 154.789062 489.621094 154.617188 490.042969 154.617188 491.074219 M 158.625 491.074219 C 160.058594 491.691406 160.0625 491.722656 158.6875 491.769531 C 157.898438 491.800781 157.449219 492.023438 157.695312 492.265625 C 158.386719 492.960938 161.324219 491.800781 160.84375 491.019531 C 160.605469 490.636719 159.671875 490.347656 158.769531 490.375 C 157.183594 490.425781 157.179688 490.453125 158.625 491.074219 M 162.808594 492.261719 C 162.84375 493.136719 163.023438 493.3125 163.261719 492.714844 C 163.480469 492.171875 163.453125 491.527344 163.203125 491.277344 C 162.953125 491.027344 162.777344 491.46875 162.808594 492.261719 M 145.5 492.574219 C 145.5 492.984375 145.835938 493.324219 146.25 493.324219 C 146.664062 493.324219 147 492.984375 147 492.574219 C 147 492.160156 146.664062 491.824219 146.25 491.824219 C 145.835938 491.824219 145.5 492.160156 145.5 492.574219 M 165.75 492.574219 C 165.75 493.511719 166.546875 493.511719 168 492.574219 C 168.910156 491.984375 168.800781 491.84375 167.4375 491.835938 C 166.507812 491.828125 165.75 492.160156 165.75 492.574219 M 169.5 492.949219 C 169.5 493.566406 169.828125 494.074219 170.226562 494.074219 C 170.625 494.074219 170.757812 493.566406 170.523438 492.949219 C 170.285156 492.328125 169.957031 491.824219 169.792969 491.824219 C 169.632812 491.824219 169.5 492.328125 169.5 492.949219 M 141.75 493.773438 L 139.875 494.917969 L 141.75 494.503906 C 142.78125 494.277344 143.878906 494.089844 144.1875 494.085938 C 144.496094 494.078125 144.75 493.734375 144.75 493.324219 C 144.75 492.300781 143.964844 492.417969 141.75 493.773438 M 175.5 493.242188 C 175.5 494.046875 180.703125 494.753906 181.160156 494.015625 C 181.511719 493.449219 178.925781 492.601562 176.8125 492.585938 C 176.089844 492.578125 175.5 492.875 175.5 493.242188 M 418.3125 493.882812 C 421.300781 494.023438 426.195312 494.023438 429.1875 493.882812 C 432.175781 493.738281 429.730469 493.621094 423.75 493.621094 C 417.769531 493.621094 415.320312 493.738281 418.3125 493.882812 M 419.8125 498.371094 C 421.566406 498.53125 424.433594 498.53125 426.1875 498.371094 C 427.941406 498.214844 426.507812 498.085938 423 498.085938 C 419.492188 498.085938 418.058594 498.214844 419.8125 498.371094 M 432.5625 498.320312 C 433.078125 498.527344 433.921875 498.527344 434.4375 498.320312 C 434.953125 498.113281 434.53125 497.941406 433.5 497.941406 C 432.46875 497.941406 432.046875 498.113281 432.5625 498.320312 M 423.21875 503.628906 C 426.019531 503.773438 430.40625 503.773438 432.96875 503.628906 C 435.53125 503.484375 433.238281 503.363281 427.875 503.367188 C 422.511719 503.367188 420.417969 503.488281 423.21875 503.628906 M 346.359375 523.835938 C 346.902344 524.054688 347.546875 524.027344 347.796875 523.777344 C 348.046875 523.527344 347.601562 523.351562 346.8125 523.382812 C 345.9375 523.417969 345.761719 523.597656 346.359375 523.835938 M 402.214844 526.878906 C 404.601562 527.027344 408.3125 527.027344 410.464844 526.875 C 412.617188 526.726562 410.664062 526.601562 406.125 526.605469 C 401.585938 526.605469 399.828125 526.730469 402.214844 526.878906 M 425.839844 526.878906 C 428.4375 527.027344 432.484375 527.027344 434.839844 526.878906 C 437.199219 526.730469 435.074219 526.609375 430.125 526.609375 C 425.175781 526.613281 423.246094 526.734375 425.839844 526.878906 M 350.109375 528.335938 C 350.652344 528.554688 351.296875 528.527344 351.546875 528.277344 C 351.796875 528.027344 351.351562 527.851562 350.5625 527.882812 C 349.6875 527.917969 349.511719 528.097656 350.109375 528.335938 M 355.3125 528.320312 C 355.828125 528.527344 356.671875 528.527344 357.1875 528.320312 C 357.703125 528.113281 357.28125 527.941406 356.25 527.941406 C 355.21875 527.941406 354.796875 528.113281 355.3125 528.320312 M 401.4375 532.878906 C 403.808594 533.027344 407.691406 533.027344 410.0625 532.878906 C 412.433594 532.730469 410.492188 532.605469 405.75 532.605469 C 401.007812 532.605469 399.066406 532.730469 401.4375 532.878906 M 425.089844 532.878906 C 427.6875 533.027344 431.734375 533.027344 434.089844 532.878906 C 436.449219 532.730469 434.324219 532.609375 429.375 532.609375 C 424.425781 532.613281 422.496094 532.734375 425.089844 532.878906 M 378.675781 593.636719 C 378.632812 625.707031 378.519531 652.875 378.417969 654.011719 C 378.3125 655.144531 378.515625 656.074219 378.867188 656.074219 C 379.214844 656.074219 379.558594 643.332031 379.628906 627.761719 C 379.777344 596.28125 379.960938 583.878906 380.71875 555.011719 C 381.195312 536.96875 381.132812 535.324219 379.992188 535.324219 C 378.847656 535.324219 378.742188 539.859375 378.675781 593.636719 M 96.277344 539.261719 C 96.527344 540.1875 96.734375 541.203125 96.738281 541.511719 C 96.746094 541.820312 97.742188 542.074219 98.953125 542.074219 C 100.769531 542.074219 101.136719 541.777344 101.050781 540.386719 C 100.925781 538.363281 99.984375 537.601562 97.601562 537.585938 C 96.125 537.574219 95.902344 537.855469 96.277344 539.261719 M 402.214844 538.128906 C 404.601562 538.277344 408.3125 538.277344 410.464844 538.125 C 412.617188 537.976562 410.664062 537.851562 406.125 537.855469 C 401.585938 537.855469 399.828125 537.980469 402.214844 538.128906 M 425.089844 538.128906 C 427.6875 538.277344 431.734375 538.277344 434.089844 538.128906 C 436.449219 537.980469 434.324219 537.859375 429.375 537.859375 C 424.425781 537.863281 422.496094 537.984375 425.089844 538.128906 M 83.25 543.503906 C 83.25 543.878906 83.925781 544.007812 84.75 543.792969 C 85.574219 543.574219 86.25 543.269531 86.25 543.109375 C 86.25 542.953125 85.574219 542.824219 84.75 542.824219 C 83.925781 542.824219 83.25 543.128906 83.25 543.503906 M 401.0625 543.375 C 403.226562 543.527344 406.769531 543.527344 408.9375 543.375 C 411.101562 543.226562 409.332031 543.101562 405 543.101562 C 400.667969 543.101562 398.894531 543.226562 401.0625 543.375 M 424.71875 543.378906 C 427.519531 543.523438 431.90625 543.523438 434.46875 543.378906 C 437.03125 543.234375 434.738281 543.113281 429.375 543.117188 C 424.011719 543.117188 421.917969 543.234375 424.71875 543.378906 M 80.25 544.300781 C 80.25 544.699219 80.757812 544.832031 81.375 544.59375 C 81.992188 544.359375 82.5 544.03125 82.5 543.867188 C 82.5 543.707031 81.992188 543.574219 81.375 543.574219 C 80.757812 543.574219 80.25 543.902344 80.25 544.300781 M 121.5 545.894531 C 121.5 546.269531 122.175781 546.574219 123 546.574219 C 123.824219 546.574219 124.5 546.445312 124.5 546.285156 C 124.5 546.128906 123.824219 545.820312 123 545.605469 C 122.175781 545.390625 121.5 545.519531 121.5 545.894531 M 402.1875 548.628906 C 404.558594 548.777344 408.441406 548.777344 410.8125 548.628906 C 413.183594 548.480469 411.242188 548.355469 406.5 548.355469 C 401.757812 548.355469 399.816406 548.480469 402.1875 548.628906 M 424.71875 548.628906 C 427.519531 548.773438 431.90625 548.773438 434.46875 548.628906 C 437.03125 548.484375 434.738281 548.363281 429.375 548.367188 C 424.011719 548.367188 421.917969 548.484375 424.71875 548.628906 M 492.5625 552.371094 C 494.316406 552.53125 497.183594 552.53125 498.9375 552.371094 C 500.691406 552.214844 499.257812 552.085938 495.75 552.085938 C 492.242188 552.085938 490.808594 552.214844 492.5625 552.371094 M 512.46875 553.128906 C 515.269531 553.273438 519.65625 553.273438 522.21875 553.128906 C 524.78125 552.984375 522.488281 552.863281 517.125 552.867188 C 511.761719 552.867188 509.667969 552.988281 512.46875 553.128906 M 401.839844 553.878906 C 404.4375 554.027344 408.484375 554.027344 410.839844 553.878906 C 413.199219 553.730469 411.074219 553.609375 406.125 553.609375 C 401.175781 553.613281 399.246094 553.734375 401.839844 553.878906 M 424.3125 553.878906 C 426.890625 554.027344 431.109375 554.027344 433.6875 553.878906 C 436.265625 553.734375 434.15625 553.613281 429 553.613281 C 423.84375 553.613281 421.734375 553.734375 424.3125 553.878906 M 349.710938 556.875 C 351.683594 557.03125 354.71875 557.027344 356.460938 556.871094 C 358.199219 556.714844 356.585938 556.585938 352.875 556.589844 C 349.164062 556.59375 347.738281 556.722656 349.710938 556.875 M 492.75 557.367188 C 492.75 557.527344 493.90625 557.792969 495.324219 557.960938 C 496.738281 558.125 497.730469 557.992188 497.527344 557.667969 C 497.164062 557.078125 492.75 556.800781 492.75 557.367188 M 508.125 557.824219 C 507.824219 558.308594 510.660156 558.546875 516.144531 558.5 C 521.550781 558.453125 523.945312 558.207031 522.75 557.824219 C 520.007812 556.945312 508.667969 556.945312 508.125 557.824219 M 401.460938 559.875 C 403.433594 560.03125 406.46875 560.027344 408.210938 559.871094 C 409.949219 559.714844 408.335938 559.589844 404.625 559.589844 C 400.914062 559.59375 399.488281 559.722656 401.460938 559.875 M 428.8125 559.871094 C 430.566406 560.03125 433.433594 560.03125 435.1875 559.871094 C 436.941406 559.714844 435.507812 559.585938 432 559.585938 C 428.492188 559.585938 427.058594 559.714844 428.8125 559.871094 M 347.0625 561.320312 C 347.578125 561.527344 348.421875 561.527344 348.9375 561.320312 C 349.453125 561.113281 349.03125 560.941406 348 560.941406 C 346.96875 560.941406 346.546875 561.113281 347.0625 561.320312 M 352.6875 561.371094 C 354.234375 561.53125 356.765625 561.53125 358.3125 561.371094 C 359.859375 561.207031 358.59375 561.074219 355.5 561.074219 C 352.40625 561.074219 351.140625 561.207031 352.6875 561.371094 M 495.1875 562.839844 C 495.910156 563.03125 497.089844 563.03125 497.8125 562.839844 C 498.535156 562.652344 497.945312 562.496094 496.5 562.496094 C 495.054688 562.496094 494.464844 562.652344 495.1875 562.839844 M 512.089844 563.628906 C 514.6875 563.777344 518.734375 563.777344 521.089844 563.628906 C 523.449219 563.480469 521.324219 563.359375 516.375 563.359375 C 511.425781 563.363281 509.496094 563.484375 512.089844 563.628906 M 426.5625 565.125 C 428.726562 565.277344 432.269531 565.277344 434.4375 565.125 C 436.601562 564.976562 434.832031 564.851562 430.5 564.851562 C 426.167969 564.851562 424.394531 564.976562 426.5625 565.125 M 493.6875 568.121094 C 495.234375 568.28125 497.765625 568.28125 499.3125 568.121094 C 500.859375 567.957031 499.59375 567.824219 496.5 567.824219 C 493.40625 567.824219 492.140625 567.957031 493.6875 568.121094 M 512.4375 568.128906 C 514.808594 568.277344 518.691406 568.277344 521.0625 568.128906 C 523.433594 567.980469 521.492188 567.855469 516.75 567.855469 C 512.007812 567.855469 510.066406 567.980469 512.4375 568.128906 M 351.5625 571.121094 C 353.316406 571.28125 356.183594 571.28125 357.9375 571.121094 C 359.691406 570.964844 358.257812 570.835938 354.75 570.835938 C 351.242188 570.835938 349.808594 570.964844 351.5625 571.121094 M 424.3125 571.128906 C 426.890625 571.277344 431.109375 571.277344 433.6875 571.128906 C 436.265625 570.984375 434.15625 570.863281 429 570.863281 C 423.84375 570.863281 421.734375 570.984375 424.3125 571.128906 M 493.6875 574.121094 C 495.234375 574.28125 497.765625 574.28125 499.3125 574.121094 C 500.859375 573.957031 499.59375 573.824219 496.5 573.824219 C 493.40625 573.824219 492.140625 573.957031 493.6875 574.121094 M 512.089844 574.128906 C 514.6875 574.277344 518.734375 574.277344 521.089844 574.128906 C 523.449219 573.980469 521.324219 573.859375 516.375 573.859375 C 511.425781 573.863281 509.496094 573.984375 512.089844 574.128906 M 432.949219 576.363281 C 434.089844 576.535156 435.777344 576.53125 436.699219 576.351562 C 437.621094 576.175781 436.6875 576.03125 434.625 576.039062 C 432.5625 576.042969 431.808594 576.191406 432.949219 576.363281 M 511.6875 578.628906 C 514.058594 578.777344 517.941406 578.777344 520.3125 578.628906 C 522.683594 578.480469 520.742188 578.355469 516 578.355469 C 511.257812 578.355469 509.316406 578.480469 511.6875 578.628906 M 493.6875 579.371094 C 495.234375 579.53125 497.765625 579.53125 499.3125 579.371094 C 500.859375 579.207031 499.59375 579.074219 496.5 579.074219 C 493.40625 579.074219 492.140625 579.207031 493.6875 579.371094 M 424.3125 581.628906 C 426.890625 581.777344 431.109375 581.777344 433.6875 581.628906 C 436.265625 581.484375 434.15625 581.363281 429 581.363281 C 423.84375 581.363281 421.734375 581.484375 424.3125 581.628906 M 512.089844 583.878906 C 514.6875 584.027344 518.734375 584.027344 521.089844 583.878906 C 523.449219 583.730469 521.324219 583.609375 516.375 583.609375 C 511.425781 583.613281 509.496094 583.734375 512.089844 583.878906 M 402.214844 586.878906 C 404.601562 587.027344 408.3125 587.027344 410.464844 586.875 C 412.617188 586.726562 410.664062 586.601562 406.125 586.605469 C 401.585938 586.605469 399.828125 586.730469 402.214844 586.878906 M 424.3125 586.878906 C 426.890625 587.027344 431.109375 587.027344 433.6875 586.878906 C 436.265625 586.734375 434.15625 586.613281 429 586.613281 C 423.84375 586.613281 421.734375 586.734375 424.3125 586.878906 M 494.082031 589.125 C 495.847656 589.28125 498.546875 589.28125 500.082031 589.117188 C 501.617188 588.957031 500.175781 588.828125 496.875 588.832031 C 493.574219 588.832031 492.316406 588.964844 494.082031 589.125 M 512.089844 589.128906 C 514.6875 589.277344 518.734375 589.277344 521.089844 589.128906 C 523.449219 588.980469 521.324219 588.859375 516.375 588.859375 C 511.425781 588.863281 509.496094 588.984375 512.089844 589.128906 M 420.9375 592.089844 C 421.660156 592.28125 422.839844 592.28125 423.5625 592.089844 C 424.285156 591.902344 423.695312 591.746094 422.25 591.746094 C 420.804688 591.746094 420.214844 591.902344 420.9375 592.089844 M 508.5 593.675781 C 508.5 594.007812 512.210938 594.285156 516.75 594.289062 C 521.289062 594.292969 525 594.023438 525 593.683594 C 525 593.347656 521.289062 593.074219 516.75 593.074219 C 512.210938 593.074219 508.5 593.34375 508.5 593.675781 M 494.082031 594.375 C 495.847656 594.53125 498.546875 594.53125 500.082031 594.367188 C 501.617188 594.207031 500.175781 594.078125 496.875 594.082031 C 493.574219 594.082031 492.316406 594.214844 494.082031 594.375 M 404.460938 596.625 C 406.433594 596.78125 409.46875 596.777344 411.210938 596.621094 C 412.949219 596.464844 411.335938 596.335938 407.625 596.339844 C 403.914062 596.34375 402.488281 596.472656 404.460938 596.625 M 424.3125 596.628906 C 426.890625 596.777344 431.109375 596.777344 433.6875 596.628906 C 436.265625 596.484375 434.15625 596.363281 429 596.363281 C 423.84375 596.363281 421.734375 596.484375 424.3125 596.628906 M 494.082031 598.875 C 495.847656 599.03125 498.546875 599.03125 500.082031 598.867188 C 501.617188 598.707031 500.175781 598.578125 496.875 598.582031 C 493.574219 598.582031 492.316406 598.714844 494.082031 598.875 M 508.5 599.042969 C 508.5 599.535156 511.53125 599.824219 516.75 599.824219 C 521.289062 599.824219 524.996094 599.570312 524.992188 599.261719 C 524.988281 598.953125 521.277344 598.601562 516.742188 598.480469 C 511.390625 598.339844 508.5 598.535156 508.5 599.042969 M 402.214844 601.878906 C 404.601562 602.027344 408.3125 602.027344 410.464844 601.875 C 412.617188 601.726562 410.664062 601.601562 406.125 601.605469 C 401.585938 601.605469 399.828125 601.730469 402.214844 601.878906 M 424.3125 601.878906 C 426.890625 602.027344 431.109375 602.027344 433.6875 601.878906 C 436.265625 601.734375 434.15625 601.613281 429 601.613281 C 423.84375 601.613281 421.734375 601.734375 424.3125 601.878906 M 493.6875 604.121094 C 495.234375 604.28125 497.765625 604.28125 499.3125 604.121094 C 500.859375 603.957031 499.59375 603.824219 496.5 603.824219 C 493.40625 603.824219 492.140625 603.957031 493.6875 604.121094 M 512.4375 604.128906 C 514.808594 604.277344 518.691406 604.277344 521.0625 604.128906 C 523.433594 603.980469 521.492188 603.855469 516.75 603.855469 C 512.007812 603.855469 510.066406 603.980469 512.4375 604.128906 M 407.820312 606.355469 C 408.753906 606.535156 410.105469 606.527344 410.820312 606.339844 C 411.539062 606.152344 410.773438 606.003906 409.125 606.011719 C 407.476562 606.019531 406.886719 606.175781 407.820312 606.355469 M 422.832031 607.125 C 424.597656 607.28125 427.296875 607.28125 428.832031 607.121094 C 430.367188 606.957031 428.925781 606.828125 425.625 606.832031 C 422.324219 606.832031 421.066406 606.964844 422.832031 607.125 M 494.046875 609.367188 C 495.378906 609.53125 497.738281 609.535156 499.296875 609.371094 C 500.851562 609.207031 499.761719 609.074219 496.875 609.070312 C 493.988281 609.066406 492.714844 609.199219 494.046875 609.367188 M 508.5 609.445312 C 508.5 610.140625 524.839844 609.984375 525.546875 609.277344 C 525.796875 609.027344 522.0625 608.824219 517.25 608.824219 C 512.4375 608.824219 508.5 609.101562 508.5 609.445312 M 400.6875 612.371094 C 402.234375 612.53125 404.765625 612.53125 406.3125 612.371094 C 407.859375 612.207031 406.59375 612.074219 403.5 612.074219 C 400.40625 612.074219 399.140625 612.207031 400.6875 612.371094 M 423.964844 612.378906 C 426.351562 612.527344 430.0625 612.527344 432.214844 612.375 C 434.367188 612.226562 432.414062 612.101562 427.875 612.105469 C 423.335938 612.105469 421.578125 612.230469 423.964844 612.378906 M 493.6875 614.621094 C 495.234375 614.78125 497.765625 614.78125 499.3125 614.621094 C 500.859375 614.457031 499.59375 614.324219 496.5 614.324219 C 493.40625 614.324219 492.140625 614.457031 493.6875 614.621094 M 512.4375 614.628906 C 514.808594 614.777344 518.691406 614.777344 521.0625 614.628906 C 523.433594 614.480469 521.492188 614.355469 516.75 614.355469 C 512.007812 614.355469 510.066406 614.480469 512.4375 614.628906 M 402.214844 616.878906 C 404.601562 617.027344 408.3125 617.027344 410.464844 616.875 C 412.617188 616.726562 410.664062 616.601562 406.125 616.605469 C 401.585938 616.605469 399.828125 616.730469 402.214844 616.878906 M 424.3125 616.878906 C 426.890625 617.027344 431.109375 617.027344 433.6875 616.878906 C 436.265625 616.734375 434.15625 616.613281 429 616.613281 C 423.84375 616.613281 421.734375 616.734375 424.3125 616.878906 M 500.632812 619.335938 C 500.890625 619.753906 501.417969 619.90625 501.800781 619.667969 C 502.84375 619.023438 502.648438 618.574219 501.332031 618.574219 C 500.6875 618.574219 500.375 618.917969 500.632812 619.335938 M 512.839844 619.128906 C 515.4375 619.277344 519.484375 619.277344 521.839844 619.128906 C 524.199219 618.980469 522.074219 618.859375 517.125 618.859375 C 512.175781 618.863281 510.246094 618.984375 512.839844 619.128906 M 406.5 621.246094 C 409.175781 621.835938 414 621.941406 414 621.40625 C 414 621.085938 412.058594 620.863281 409.6875 620.910156 C 407.316406 620.957031 405.882812 621.109375 406.5 621.246094 M 399.199219 622.113281 C 400.339844 622.285156 402.027344 622.28125 402.949219 622.101562 C 403.871094 621.925781 402.9375 621.78125 400.875 621.789062 C 398.8125 621.792969 398.058594 621.941406 399.199219 622.113281 M 423.96875 622.128906 C 426.769531 622.273438 431.15625 622.273438 433.71875 622.128906 C 436.28125 621.984375 433.988281 621.863281 428.625 621.867188 C 423.261719 621.867188 421.167969 621.988281 423.96875 622.128906 M 599.484375 622.136719 C 605.179688 622.261719 614.292969 622.261719 619.734375 622.132812 C 625.171875 622.007812 620.511719 621.902344 609.375 621.902344 C 598.238281 621.902344 593.785156 622.007812 599.484375 622.136719 M 402.214844 626.628906 C 404.601562 626.777344 408.3125 626.777344 410.464844 626.625 C 412.617188 626.476562 410.664062 626.351562 406.125 626.355469 C 401.585938 626.355469 399.828125 626.480469 402.214844 626.628906 M 423.96875 626.628906 C 426.769531 626.773438 431.15625 626.773438 433.71875 626.628906 C 436.28125 626.484375 433.988281 626.363281 428.625 626.367188 C 423.261719 626.367188 421.167969 626.488281 423.96875 626.628906 M 600.5625 626.636719 C 606.851562 626.761719 617.144531 626.761719 623.4375 626.636719 C 629.726562 626.507812 624.582031 626.40625 612 626.40625 C 599.417969 626.40625 594.269531 626.507812 600.5625 626.636719 M 600.609375 631.136719 C 606.925781 631.261719 617.050781 631.261719 623.109375 631.136719 C 629.167969 631.007812 624 630.90625 611.625 630.90625 C 599.25 630.90625 594.292969 631.007812 600.609375 631.136719 M 600.609375 635.636719 C 606.925781 635.761719 617.050781 635.761719 623.109375 635.636719 C 629.167969 635.507812 624 635.40625 611.625 635.40625 C 599.25 635.40625 594.292969 635.507812 600.609375 635.636719 M 348.9375 636.371094 C 350.484375 636.53125 353.015625 636.53125 354.5625 636.371094 C 356.109375 636.207031 354.84375 636.074219 351.75 636.074219 C 348.65625 636.074219 347.390625 636.207031 348.9375 636.371094 M 600.609375 640.136719 C 606.925781 640.261719 617.050781 640.261719 623.109375 640.136719 C 629.167969 640.007812 624 639.90625 611.625 639.90625 C 599.25 639.90625 594.292969 640.007812 600.609375 640.136719 M 351.582031 643.875 C 353.347656 644.03125 356.046875 644.03125 357.582031 643.871094 C 359.117188 643.707031 357.675781 643.578125 354.375 643.582031 C 351.074219 643.582031 349.816406 643.714844 351.582031 643.875 M 600.5625 644.636719 C 606.851562 644.761719 617.144531 644.761719 623.4375 644.636719 C 629.726562 644.507812 624.582031 644.40625 612 644.40625 C 599.417969 644.40625 594.269531 644.507812 600.5625 644.636719 M 590.4375 649.089844 C 591.160156 649.28125 592.339844 649.28125 593.0625 649.089844 C 593.785156 648.902344 593.195312 648.746094 591.75 648.746094 C 590.304688 648.746094 589.714844 648.902344 590.4375 649.089844 M 597.582031 649.125 C 599.347656 649.28125 602.046875 649.28125 603.582031 649.121094 C 605.117188 648.957031 603.675781 648.828125 600.375 648.832031 C 597.074219 648.832031 595.816406 648.964844 597.582031 649.125 " fill-opacity="1" fill-rule="evenodd"/></svg>